<svg version="1.1" id="Layer_1" xmlns="http://www.w3.org/2000/svg" xmlns:xlink="http://www.w3.org/1999/xlink" x="0px" y="0px"
	 width="100%" viewBox="0 0 477 598" enable-background="new 0 0 477 598" xml:space="preserve">
<path fill="#E8EFF3" opacity="1.000000" stroke="none" 
	d="
M1.000000,499.000000 
	C1.000000,333.975098 1.000000,168.950180 1.468657,3.462670 
	C89.977669,3.017673 178.018021,3.035283 266.038513,3.516070 
	C266.012817,37.733963 266.091553,71.489151 265.901520,105.242828 
	C265.875824,109.810280 267.107971,111.128639 271.727753,111.102814 
	C305.813995,110.912239 339.901825,110.999496 374.278625,111.300072 
	C374.712433,112.910606 374.982574,114.220367 374.983002,115.530212 
	C375.003662,178.350998 375.002808,241.171799 374.989868,303.992584 
	C374.989594,305.448578 374.823303,306.904541 374.717163,308.643646 
	C318.016052,297.034332 268.048340,310.133514 227.809235,351.243164 
	C187.599213,392.323090 175.688248,442.586243 188.439453,499.000000 
	C125.589546,499.000000 63.294773,499.000000 1.000000,499.000000 
z"/>
<path fill="#FFFFFF" opacity="1.000000" stroke="none" 
	d="
M1.000000,499.468658 
	C63.294773,499.000000 125.589546,499.000000 188.439453,499.000000 
	C175.688248,442.586243 187.599213,392.323090 227.809235,351.243164 
	C268.048340,310.133514 318.016052,297.034332 374.717163,308.643646 
	C374.823303,306.904541 374.989594,305.448578 374.989868,303.992584 
	C375.002808,241.171799 375.003662,178.350998 374.983002,115.530212 
	C374.982574,114.220367 374.712433,112.910606 374.298584,111.021210 
	C374.027771,110.255219 374.026428,110.068832 374.439819,109.745865 
	C374.854492,74.175934 374.854492,38.742596 374.854492,3.072461 
	C339.058105,3.072461 303.598541,3.072461 267.791870,3.065397 
	C266.982666,3.056520 266.520508,3.054706 266.058380,3.052893 
	C178.018021,3.035283 89.977669,3.017673 1.468657,3.000031 
	C1.332858,2.333333 1.547014,1.216286 2.022545,1.090956 
	C3.112917,0.803581 4.330796,1.000000 5.496908,1.000000 
	C162.921997,1.000000 320.347076,1.000000 478.000000,1.000000 
	C478.000000,147.687485 478.000000,294.375092 477.617828,441.362000 
	C476.447784,436.336334 476.162323,430.877991 474.789612,425.708313 
	C466.591553,394.835114 450.562714,368.917725 425.409027,348.896362 
	C404.144745,331.970856 379.877136,321.803986 352.986694,319.270935 
	C336.959595,317.761230 320.529480,317.859406 304.752258,322.181396 
	C262.237885,333.827667 230.428024,358.761627 210.999619,398.823273 
	C198.832626,423.911804 195.998978,450.279510 198.889175,477.717712 
	C200.565872,493.635376 205.492828,508.516846 212.444763,522.619690 
	C221.701813,541.398682 235.144165,557.136780 251.639481,570.018433 
	C266.998535,582.012695 284.178040,590.574463 303.250092,595.055969 
	C309.149902,596.442322 315.082458,597.689270 321.000000,599.000000 
	C214.444519,599.000000 107.889023,599.000000 1.000000,599.000000 
	C1.000000,565.979858 1.000000,532.958557 1.000000,499.468658 
z"/>
<path fill="#00AC54" opacity="1.000000" stroke="none" 
	d="
M321.468658,599.000000 
	C315.082458,597.689270 309.149902,596.442322 303.250092,595.055969 
	C284.178040,590.574463 266.998535,582.012695 251.639481,570.018433 
	C235.144165,557.136780 221.701813,541.398682 212.444763,522.619690 
	C205.492828,508.516846 200.565872,493.635376 198.889175,477.717712 
	C195.998978,450.279510 198.832626,423.911804 210.999619,398.823273 
	C230.428024,358.761627 262.237885,333.827667 304.752258,322.181396 
	C320.529480,317.859406 336.959595,317.761230 352.986694,319.270935 
	C379.877136,321.803986 404.144745,331.970856 425.409027,348.896362 
	C450.562714,368.917725 466.591553,394.835114 474.789612,425.708313 
	C476.162323,430.877991 476.447784,436.336334 477.617828,441.830658 
	C478.000000,453.020905 478.000000,464.041779 477.617828,475.700684 
	C475.923218,492.402893 470.912842,507.468903 463.927032,521.790955 
	C454.665253,540.779175 441.251831,556.637390 424.705200,569.717407 
	C409.400818,581.815430 392.189423,590.262695 373.234100,595.000488 
	C367.199799,596.508606 361.080444,597.676453 355.000000,599.000000 
	C343.979095,599.000000 332.958221,599.000000 321.468658,599.000000 
M381.436005,515.968262 
	C383.601379,515.963867 385.773346,516.067627 387.930969,515.936157 
	C396.835266,515.393433 403.655823,508.727020 403.955292,499.978973 
	C404.183105,493.324158 404.288849,486.634796 403.812988,480.006470 
	C403.685699,478.233459 401.461670,475.537140 399.789154,475.177734 
	C396.543030,474.480164 395.900208,477.273285 395.926941,480.068115 
	C395.984253,486.063873 396.016083,492.061707 395.922882,498.056610 
	C395.823883,504.424469 392.429810,507.875854 385.998932,507.887451 
	C354.018677,507.945068 322.038177,507.945007 290.057892,507.888245 
	C283.401581,507.876434 280.143799,504.399872 280.081177,497.612885 
	C280.030426,492.116730 280.069763,486.619720 280.070709,481.123108 
	C280.071228,478.261414 280.423370,474.973328 276.218109,475.003174 
	C271.933899,475.033630 271.963104,478.306000 271.985443,481.435150 
	C272.022278,486.598419 271.991364,491.762085 271.996246,496.925598 
	C272.007965,509.337952 278.601410,515.959229 291.009216,515.964233 
	C320.824249,515.976257 350.639313,515.968201 381.436005,515.968262 
M342.134155,416.776001 
	C343.278320,417.461456 344.603516,417.960175 345.536011,418.864044 
	C350.081085,423.269653 354.322662,428.016266 359.123566,432.112518 
	C360.502930,433.289429 363.988159,433.645142 365.455383,432.715790 
	C368.178284,430.991058 366.843414,428.398926 364.873749,426.428467 
	C357.100342,418.651978 349.419373,410.777985 341.446777,403.211243 
	C340.250183,402.075653 336.739899,401.381531 335.897736,402.176300 
	C327.064087,410.512909 318.484589,419.126007 310.076080,427.894012 
	C309.293549,428.710083 309.556549,431.683563 310.436279,432.621613 
	C311.358093,433.604553 313.760742,433.881439 315.236023,433.467804 
	C316.668488,433.066162 317.833099,431.478760 318.963348,430.269958 
	C323.541260,425.373871 328.060608,420.423035 332.601562,415.492371 
	C333.056641,415.864594 333.511749,416.236847 333.966827,416.609070 
	C333.966827,437.063202 333.966095,457.517334 333.967499,477.971466 
	C333.967712,481.303467 333.535278,484.723419 334.172943,487.929657 
	C334.482361,489.485718 336.655334,491.375610 338.270325,491.702271 
	C339.232788,491.896973 341.049896,489.519958 341.910828,487.979370 
	C342.480621,486.959717 342.044647,485.373413 342.044922,484.040771 
	C342.049561,461.882477 342.052002,439.724152 342.134155,416.776001 
z"/>
<path fill="#FFFFFF" opacity="1.000000" stroke="none" 
	d="
M355.468658,599.000000 
	C361.080444,597.676453 367.199799,596.508606 373.234100,595.000488 
	C392.189423,590.262695 409.400818,581.815430 424.705200,569.717407 
	C441.251831,556.637390 454.665253,540.779175 463.927032,521.790955 
	C470.912842,507.468903 475.923218,492.402893 477.617828,476.169342 
	C478.000000,516.926941 478.000000,557.853943 478.000000,599.000000 
	C437.312714,599.000000 396.625000,599.000000 355.468658,599.000000 
z"/>
<path fill="#D0D3D5" opacity="1.000000" stroke="none" 
	d="
M266.038513,3.516070 
	C266.520508,3.054706 266.982666,3.056520 267.844604,3.391209 
	C302.414124,37.885677 336.585876,72.045280 370.745178,106.217339 
	C371.902496,107.375076 372.934631,108.657936 374.025116,109.882462 
	C374.026428,110.068832 374.027771,110.255219 374.009094,110.720474 
	C339.901825,110.999496 305.813995,110.912239 271.727753,111.102814 
	C267.107971,111.128639 265.875824,109.810280 265.901520,105.242828 
	C266.091553,71.489151 266.012817,37.733963 266.038513,3.516070 
z"/>
<path fill="#000000" opacity="1.000000" stroke="none" 
	d="
M374.439819,109.745872 
	C372.934631,108.657936 371.902496,107.375076 370.745178,106.217339 
	C336.585876,72.045280 302.414124,37.885677 268.191681,3.398273 
	C303.598541,3.072461 339.058105,3.072461 374.854492,3.072461 
	C374.854492,38.742596 374.854492,74.175934 374.439819,109.745872 
z"/>
<path fill="#FCFEFE" opacity="1.000000" stroke="none" 
	d="
M380.945190,515.968262 
	C350.639313,515.968201 320.824249,515.976257 291.009216,515.964233 
	C278.601410,515.959229 272.007965,509.337952 271.996246,496.925598 
	C271.991364,491.762085 272.022278,486.598419 271.985443,481.435150 
	C271.963104,478.306000 271.933899,475.033630 276.218109,475.003174 
	C280.423370,474.973328 280.071228,478.261414 280.070709,481.123108 
	C280.069763,486.619720 280.030426,492.116730 280.081177,497.612885 
	C280.143799,504.399872 283.401581,507.876434 290.057892,507.888245 
	C322.038177,507.945007 354.018677,507.945068 385.998932,507.887451 
	C392.429810,507.875854 395.823883,504.424469 395.922882,498.056610 
	C396.016083,492.061707 395.984253,486.063873 395.926941,480.068115 
	C395.900208,477.273285 396.543030,474.480164 399.789154,475.177734 
	C401.461670,475.537140 403.685699,478.233459 403.812988,480.006470 
	C404.288849,486.634796 404.183105,493.324158 403.955292,499.978973 
	C403.655823,508.727020 396.835266,515.393433 387.930969,515.936157 
	C385.773346,516.067627 383.601379,515.963867 380.945190,515.968262 
z"/>
<path fill="#FAFEFD" opacity="1.000000" stroke="none" 
	d="
M342.094543,417.170929 
	C342.052002,439.724152 342.049561,461.882477 342.044922,484.040771 
	C342.044647,485.373413 342.480621,486.959717 341.910828,487.979370 
	C341.049896,489.519958 339.232788,491.896973 338.270325,491.702271 
	C336.655334,491.375610 334.482361,489.485718 334.172943,487.929657 
	C333.535278,484.723419 333.967712,481.303467 333.967499,477.971466 
	C333.966095,457.517334 333.966827,437.063202 333.966827,416.609070 
	C333.511749,416.236847 333.056641,415.864594 332.601562,415.492371 
	C328.060608,420.423035 323.541260,425.373871 318.963348,430.269958 
	C317.833099,431.478760 316.668488,433.066162 315.236023,433.467804 
	C313.760742,433.881439 311.358093,433.604553 310.436279,432.621613 
	C309.556549,431.683563 309.293549,428.710083 310.076080,427.894012 
	C318.484589,419.126007 327.064087,410.512909 335.897736,402.176300 
	C336.739899,401.381531 340.250183,402.075653 341.446777,403.211243 
	C349.419373,410.777985 357.100342,418.651978 364.873749,426.428467 
	C366.843414,428.398926 368.178284,430.991058 365.455383,432.715790 
	C363.988159,433.645142 360.502930,433.289429 359.123566,432.112518 
	C354.322662,428.016266 350.081085,423.269653 345.536011,418.864044 
	C344.603516,417.960175 343.278320,417.461456 342.094543,417.170929 
z"/>
</svg>